<?xml version="1.0" encoding="utf-8"?>
<!-- Generator: Adobe Illustrator 22.0.1, SVG Export Plug-In . SVG Version: 6.00 Build 0)  -->
<svg version="1.0" id="Layer_1" xmlns="http://www.w3.org/2000/svg" xmlns:xlink="http://www.w3.org/1999/xlink" x="0px" y="0px"
	 viewBox="0 0 360 830.7" enable-background="new 0 0 360 830.7" xml:space="preserve">
<g>
	<path opacity="0.5" fill="#12DBDB" enable-background="new    " d="M0,770.7h120v60H0V770.7z"/>
	<path opacity="0.5" fill="#F0F00A" enable-background="new    " d="M0,710.7h120v60H0V710.7z"/>
	<path opacity="0.25" fill="#12DBDB" enable-background="new    " d="M120,650.7h120v60H120V650.7z"/>
	<path opacity="0.75" fill="#F0F00A" enable-background="new    " d="M240,650.7h120v60H240V650.7z"/>
	<path fill="#F0F00A" d="M120,710.7h120v60H120V710.7z"/>
	<path opacity="0.5" fill="#F0F00A" enable-background="new    " d="M120,770.7h120v60H120V770.7z"/>
	<path opacity="0.75" fill="#12DBDB" enable-background="new    " d="M240,770.7h120v60H240V770.7z"/>
	<path fill="#12DBDB" d="M240,710.7h120v60H240V710.7z"/>
</g>
<g>
	<path fill="#F0F00A" d="M0,480.7h120v60H0V480.7z"/>
	<path fill="#BFBFBF" d="M58,0.7h2v480h-2V0.7z"/>
</g>
</svg>
